# AST/ASF file generated using VICON BodyLanguage
# -----------------------------------------------
:version 1.10
:name VICON
:units
  mass 1.0
  length 0.45
  angle deg
:documentation
   .ast/.asf automatically generated from VICON data using
   VICON BodyBuilder and BodyLanguage model FoxedUp or BRILLIANT.MOD
:root
   order TX TY TZ RX RY RZ
   axis XYZ
   position 0 0 0  
   orientation 0 0 0 
:bonedata
  begin
     id 1 
     name lhipjoint
     direction 0.567149 -0.783011 0.255413 
     length 2.28399 
     axis 0 0 0  XYZ
  end
  begin
     id 2 
     name lfemur
     direction 0.34202 -0.939693 0  
     length 7.34031  
     axis 0 0 20  XYZ
    dof rx ry rz
    limits (-160.0 20.0)
           (-70.0 70.0)
           (-60.0 70.0)
  end
  begin
     id 3 
     name ltibia
     direction 0.34202 -0.939693 0   
     length 6.9833   
     axis 0 0 20   XYZ
    dof rx
    limits (-10.0 170.0)
  end
  begin
     id 4 
     name lfoot
     direction 0.136498 -0.375025 0.91691   
     length 2.33665   
     axis -90 7.62852e-016 20   XYZ
    dof rx rz
    limits (-45.0 90.0)
           (-70.0 20.0)
  end
  begin
     id 5 
     name ltoes
     direction 1.5367e-011 -4.21617e-011 1   
     length 1.15039   
     axis -90 7.62852e-016 20   XYZ
    dof rx
    limits (-90.0 20.0)
  end
  begin
     id 6 
     name rhipjoint
     direction -0.602854 -0.758518 0.247423   
     length 2.35775  
     axis 0 0 0  XYZ 
  end
  begin
     id 7 
     name rfemur
     direction -0.34202 -0.939693 0   
     length 7.43932   
     axis 0 0 -20   XYZ
    dof rx ry rz
    limits (-160.0 20.0)
           (-70.0 70.0)
           (-70.0 60.0)
  end
  begin
     id 8 
     name rtibia
     direction -0.34202 -0.939693 0   
     length 7.11893   
     axis 0 0 -20   XYZ
    dof rx
    limits (-10.0 170.0)
 end
 begin
     id 9 
     name rfoot
     direction -0.131771 -0.362037 0.922803   
     length 2.53019  
     axis -90 -7.62852e-016 -20   XYZ
    dof rx rz
    limits (-45.0 90.0)
           (-20.0 70.0)
  end
  begin
     id 10 
     name rtoes
     direction -1.53733e-011 -4.21932e-011 1   
     length 1.24596   
     axis -90 -7.62852e-016 -20   XYZ
    dof rx
    limits (-90.0 20.0)
  end
  begin
     id 11 
     name lowerback
     direction 0.0235427 0.999023 -0.0374125   
     length 2.21768   
     axis 0 0 0   XYZ
    dof rx ry rz
    limits (-20.0 45.0)
           (-30.0 30.0)
           (-30.0 30.0)
  end
  begin
     id 12 
     name upperback
     direction 0.0302156 0.996818 -0.073759   
     length 2.20352   
     axis 0 0 0   XYZ
    dof rx ry rz
    limits (-20.0 45.0)
           (-30.0 30.0)
           (-30.0 30.0)
  end
  begin
     id 13 
     name thorax
     direction 0.0187169 0.998235 -0.0563532   
     length 2.22103   
     axis 0 0 0   XYZ
    dof rx ry rz
    limits (-20.0 45.0)
           (-30.0 30.0)
           (-30.0 30.0)
  end
  begin
     id 14 
     name lowerneck
     direction -0.119528 0.987423 0.103481   
     length 1.72948   
     axis 0 0 0   XYZ
    dof rx ry rz
    limits (-20.0 45.0)
           (-30.0 30.0)
           (-30.0 30.0)
  end
  begin
     id 15 
     name upperneck
     direction 0.248049 0.963095 -0.104496   
     length 1.74979   
     axis 0 0 0   XYZ
    dof rx ry rz
    limits (-20.0 45.0)
           (-30.0 30.0)
           (-30.0 30.0)
  end
  begin
     id 16
     name head
     direction 0.0903589 0.994284 -0.056876  
     length 1.78268  
     axis 0 0 0   XYZ
    dof rx ry rz
    limits (-20.0 45.0)
           (-30.0 30.0)
           (-30.0 30.0)
  end
  begin
     id 17 
     name lclavicle
     direction 0.946008 0.242039 -0.215608  
     length 3.80783  
     axis 0 0 0   XYZ
    dof ry rz
    limits (-20.0 10.0)
           (0.0 20.0)
  end
  begin
     id 18 
     name lhumerus
     direction 1 -4.48991e-011 -2.25695e-027   
     length 4.83125   
     axis 180 -30 -90   XYZ
    dof rx ry rz
    limits (-60.0 90.0)
           (-90.0 90.0)
           (-90.0 90.0)
  end
  begin
     id 19
     name lradius
     direction 0.999991 0.00366712 -0.00211721   
     length 3.00391   
     axis 180 -30 -90   XYZ
    dof rx
    limits (-10.0 170.0)
  end
  begin
     id 20
     name lwrist
     direction 0.999991 0.00393016 -0.00141978   
     length 1.50195   
     axis -1.00488e-014 90 90   XYZ
    dof ry
    limits (-180.0 0.0)
 end
  begin
     id 21 
     name lhand
     direction 1 -4.49123e-011 2.72098e-026   
     length 1.2717   
     axis -1.73687e-014 90 90   XYZ
    dof rx rz
    limits (-90.0 90.0)
           (-45.0 45.0)
  end
  begin
     id 22 
     name lfingers
     direction 1 -4.48678e-011 5.4479e-026   
     length 1.02528   
     axis -3.47372e-014 90 90   XYZ
    dof rx
    limits (0.0 90.0)
  end
  begin
     id 23
     name lthumb
     direction 0.707107 -6.34851e-011 0.707107   
     length 1.4721   
     axis -90 45 -1.62303e-014   XYZ
    dof rx rz
    limits (-45.0 45.0)
           (-45.0 45.0)
  end
  begin
     id 24 
     name rclavicle
     direction -0.981723 0.189447 -0.0181673   
     length 3.74989  
     axis 0 0 0   XYZ 
    dof ry rz
    limits (-10.0 20.0)
           (-20.0 0.0)
  end
  begin
     id 25 
     name rhumerus
     direction -1 -4.48985e-011 2.38206e-027  
     length 4.61118   
     axis 180 30 90   XYZ
    dof rx ry rz
    limits (-90.0 60.0)
           (-90.0 90.0)
           (-90.0 90.0)
  end
  begin
     id 26 
     name rradius
     direction -1 -4.48977e-011 7.41019e-027   
     length 2.91491   
     axis 180 30 90   XYZ
    dof rx
    limits (-10.0 170.0)
  end
  begin
     id 27 
     name rwrist
     direction -1 -4.48549e-011 1.3624e-026   
     length 1.45745   
     axis -1.00488e-014 -90 -90   XYZ
    dof ry
    limits (-180.0 0.0)
  end
  begin
     id 28
     name rhand
     direction -1 -4.49107e-011 2.72109e-026   
     length 1.30769   
     axis -1.73687e-014 -90 -90   XYZ
    dof rx rz
    limits (-90.0 90.0)
           (-45.0 45.0)
  end
  begin
     id 29
     name rfingers
     direction -1 -4.48919e-011 5.44468e-026   
     length 1.05429   
     axis -3.47372e-014 -90 -90   XYZ
    dof rx
    limits (0.0 90.0)
  end
  begin
     id 30
     name rthumb
     direction -0.707107 -6.35315e-011 0.707107   
     length 1.51376   
     axis -90 -45 1.62303e-014   XYZ
    dof rx rz
    limits (-45.0 45.0)
           (-45.0 45.0)
  end
:hierarchy
  begin
    root lhipjoint rhipjoint lowerback
    lhipjoint lfemur
    lfemur ltibia
    ltibia lfoot
    lfoot ltoes
    rhipjoint rfemur
    rfemur rtibia
    rtibia rfoot
    rfoot rtoes
    lowerback upperback
    upperback thorax
    thorax lowerneck lclavicle rclavicle
    lowerneck upperneck
    upperneck head
    lclavicle lhumerus
    lhumerus lradius
    lradius lwrist
    lwrist lhand lthumb
    lhand lfingers
    rclavicle rhumerus
    rhumerus rradius
    rradius rwrist
    rwrist rhand rthumb
    rhand rfingers
  end

#!OML:ASF X:\für Bonn\!DataBase\2005_08_11_Bastian_Final\c3d\Bastian.ASF
:FULLY-SPECIFIED
:DEGREES
1
root -1.68722 16.916 -3.66283 167.77 -19.4492 -174.542
lowerback 9.80909 -2.70955 5.24591
upperback 8.79573 -4.48119 2.67985
thorax 3.59728 -2.5535 0.124754
lowerneck -6.71776 3.01586 -0.763733
upperneck -5.74825 3.7493 1.47341
head -0.70371 1.72752 0.623022
rclavicle -2.9122e-014 3.97569e-016
rhumerus -41.8131 26.6917 -106.805
rradius 92.6509
rwrist -0.806225
rhand -17.7992 10.1054
rfingers 7.12502
rthumb 8.46417 -19.705
lclavicle -2.9122e-014 3.97569e-016
lhumerus -32.6258 -38.3926 106.384
lradius 92.1935
lwrist 35.1312
lhand -1.0613 -19.359
lfingers 7.12502
lthumb 24.5735 9.08394
rfemur -9.89184 -11.9544 25.8987
rtibia 51.9943
rfoot -199.842 -198.918
rtoes -1.7139
lfemur 0.0907404 -1.77329 -15.5756
ltibia 40.1819
lfoot -21.8046 -8.02914
ltoes -5.44118
2
root -1.68259 16.9035 -3.67027 167.773 -19.4935 -174.579
lowerback 9.8469 -2.6076 5.32581
upperback 8.79461 -4.32896 2.61668
thorax 3.57043 -2.4691 0.00695422
lowerneck -6.58762 2.83845 -0.617718
upperneck -5.91947 3.50059 1.48512
head -0.771606 1.59674 0.5968
rclavicle 4.96962e-014 -2.10712e-014
rhumerus -41.5112 26.975 -106.951
rradius 92.2643
rwrist -0.364583
rhand -17.9009 10.0799
rfingers 7.12502
rthumb 8.36598 -19.7344
lclavicle 4.96962e-014 -2.10712e-014
lhumerus -32.8385 -38.3268 106.413
lradius 92.1747
lwrist 35.0964
lhand -1.16462 -19.2719
lfingers 7.12502
lthumb 24.4744 9.18447
rfemur -9.62553 -11.7761 25.973
rtibia 51.6432
rfoot -200.36 -199.259
rtoes -1.11687
lfemur 0.0227728 -1.79763 -15.5951
ltibia 40.3666
lfoot -21.8757 -8.02046
ltoes -5.53823
3
root -1.67787 16.8975 -3.67918 167.765 -19.5108 -174.62
lowerback 9.88623 -2.50725 5.39472
upperback 8.8025 -4.18296 2.56108
thorax 3.55433 -2.38949 -0.0970453
lowerneck -6.46085 2.65408 -0.481957
upperneck -6.09913 3.24209 1.45428
head -0.84128 1.46109 0.559631
rclavicle 4.30369e-014 -1.63003e-014
rhumerus -41.2044 27.3033 -107.056
rradius 91.8655
rwrist 0.195697
rhand -18.1026 10.0699
rfingers 7.12502
rthumb 8.17127 -19.7521
lclavicle 4.30369e-014 -1.63003e-014
lhumerus -33.0039 -38.219 106.429
lradius 92.1244
lwrist 35.1293
lhand -1.28645 -19.1857
lfingers 7.12502
lthumb 24.3576 9.28637
rfemur -9.3107 -11.3826 26.0833
rtibia 51.2615
rfoot -200.916 -199.656
rtoes -0.388007
lfemur 0.00509419 -1.84229 -15.6148
ltibia 40.5203
lfoot -21.9328 -8.0418
ltoes -5.0853
4
root -1.67218 16.8917 -3.6895 167.767 -19.487 -174.664
lowerback 9.90831 -2.39417 5.47499
upperback 8.81409 -4.02031 2.49559
thorax 3.55168 -2.30018 -0.220159
lowerneck -6.37469 2.46158 -0.353051
upperneck -6.26241 2.97309 1.4513
head -0.900387 1.31992 0.533131
rclavicle 2.42517e-014 1.94809e-014
rhumerus -40.8679 27.5705 -107.138
rradius 91.4528
rwrist 0.848477
rhand -18.3092 10.1156
rfingers 7.12502
rthumb 7.97196 -19.7141
lclavicle 2.42517e-014 1.94809e-014
lhumerus -33.1621 -38.1479 106.403
lradius 92.0968
lwrist 35.2902
lhand -1.45237 -19.0994
lfingers 7.12502
lthumb 24.1985 9.39398
rfemur -9.00915 -10.8619 26.2252
rtibia 50.8752
rfoot -201.494 -200.084
rtoes 0.348869
lfemur -0.0032719 -1.88475 -15.6343
ltibia 40.6519
lfoot -22.0206 -8.01933
ltoes -4.93141
5
root -1.66519 16.8864 -3.70078 167.785 -19.4484 -174.725
lowerback 9.93043 -2.2854 5.51298
upperback 8.80588 -3.86261 2.44306
thorax 3.53114 -2.21534 -0.30551
lowerneck -6.24387 2.26328 -0.2591
upperneck -6.44628 2.69944 1.4427
head -0.974026 1.17712 0.510542
rclavicle -4.9398e-014 2.78299e-015
rhumerus -40.5895 27.7636 -107.195
rradius 91.0922
rwrist 1.56539
rhand -18.4501 10.1329
rfingers 7.12502
rthumb 7.83593 -19.7019
lclavicle -4.9398e-014 2.78299e-015
lhumerus -33.3171 -37.9682 106.384
lradius 92.0656
lwrist 35.4727
lhand -1.57542 -18.9865
lfingers 7.12502
lthumb 24.0806 9.52253
rfemur -8.71638 -10.3439 26.344
rtibia 50.4798
rfoot -202.107 -200.432
rtoes 1.05379
lfemur 0.000696185 -1.9118 -15.661
ltibia 40.7354
lfoot -22.0758 -8.01211
ltoes -4.79311
6
root -1.65823 16.8816 -3.71298 167.819 -19.404 -174.79
lowerback 9.89802 -2.17337 5.57794
upperback 8.82399 -3.70602 2.36924
thorax 3.56667 -2.12813 -0.431853
lowerneck -6.16055 2.05048 -0.179784
upperneck -6.64626 2.40502 1.46504
head -1.04595 1.02252 0.500656
rclavicle 4.88016e-014 -1.07344e-014
rhumerus -40.2933 27.8245 -107.212
rradius 90.7568
rwrist 2.41413
rhand -18.5778 10.245
rfingers 7.12502
rthumb 7.71266 -19.5944
lclavicle 4.88016e-014 -1.07344e-014
lhumerus -33.3865 -37.8531 106.281
lradius 91.9922
lwrist 35.7849
lhand -1.67469 -18.9268
lfingers 7.12502
lthumb 23.9854 9.59472
rfemur -8.4361 -9.97748 26.4142
rtibia 50.0966
rfoot -202.509 -200.644
rtoes 1.10534
lfemur 7.58518e-005 -1.90984 -15.6772
ltibia 40.8011
lfoot -22.1121 -8.04281
ltoes -4.42158
7
root -1.65001 16.8771 -3.72575 167.85 -19.3281 -174.875
lowerback 9.89614 -2.06357 5.59752
upperback 8.83429 -3.55339 2.30676
thorax 3.58029 -2.04643 -0.519041
lowerneck -6.11847 1.84181 -0.135552
upperneck -6.79215 2.11883 1.47839
head -1.09507 0.874172 0.494698
rclavicle 3.08116e-014 -1.31198e-014
rhumerus -40.0476 27.8368 -107.191
rradius 90.4901
rwrist 3.20717
rhand -18.6586 10.4038
rfingers 7.12502
rthumb 7.63471 -19.4384
lclavicle 3.08116e-014 -1.31198e-014
lhumerus -33.4974 -37.6646 106.177
lradius 91.9907
lwrist 36.1868
lhand -1.73725 -18.8741
lfingers 7.12502
lthumb 23.9254 9.65531
rfemur -8.14402 -9.67831 26.4353
rtibia 49.7331
rfoot -202.717 -200.719
rtoes 0.581719
lfemur 0.029401 -1.86243 -15.7002
ltibia 40.8456
lfoot -22.167 -8.08771
ltoes -4.30438
8
root -1.64158 16.874 -3.739 167.896 -19.2415 -174.954
lowerback 9.86567 -1.96532 5.61735
upperback 8.84726 -3.41915 2.25021
thorax 3.61245 -1.97378 -0.60038
lowerneck -6.07545 1.63653 -0.134362
upperneck -6.96195 1.8388 1.51898
head -1.15294 0.728639 0.504586
rclavicle 2.127e-014 -6.36111e-015
rhumerus -39.8215 27.8015 -107.135
rradius 90.2661
rwrist 4.00451
rhand -18.732 10.5472
rfingers 7.12502
rthumb 7.56379 -19.2975
lclavicle 2.127e-014 -6.36111e-015
lhumerus -33.5767 -37.3933 106.07
lradius 91.9492
lwrist 36.5791
lhand -1.72817 -18.8367
lfingers 7.12502
lthumb 23.9341 9.69161
rfemur -7.8749 -9.37565 26.4655
rtibia 49.3815
rfoot -202.902 -200.799
rtoes -0.160343
lfemur 0.0463949 -1.76658 -15.701
ltibia 40.8724
lfoot -22.2142 -8.10542
ltoes -4.44406
